# xmcd CD database file
#
# Track frame offsets:
#	150
#	15975
#	33882
#	51763
#	70762
#	85261
#	102778
#	120041
#	135079
#	145256
#
# Disc length: 2132 seconds
#
# Revision: 0
# Processed by: cddbd v1.5PL3 Copyright (c) Steve Scherf et al.
# Submitted via: CDex 1.51
#
DISCID=6b08520a
DTITLE=Curtis Cole and the Diamond Ears - Curtis Cole and the Diamond Ears
DYEAR=2000
DGENRE=Alt Country
TTITLE0=Make That Show
TTITLE1=Blue Feeling
TTITLE2=Over You
TTITLE3=Farmer's Daughter
TTITLE4=Blank Page
TTITLE5=Don't Wreck My Truck
TTITLE6=She Had Everything
TTITLE7=She Said
TTITLE8=I'm On Fire
TTITLE9=Sunny Creek
EXTD=YEAR: 2000
EXTT0=
EXTT1=
EXTT2=
EXTT3=
EXTT4=
EXTT5=
EXTT6=
EXTT7=
EXTT8=
EXTT9=
PLAYORDER=
